<svg width="51" height="52" viewBox="0 0 51 52" fill="none" xmlns="http://www.w3.org/2000/svg">
<path d="M51 8.26495V37.647C51 42.7954 46.3819 46.9817 40.7025 46.9817C35.0518 46.9817 30.405 42.7954 30.405 37.647C30.405 32.5246 35.0518 28.3384 40.7025 28.3384C43.1119 28.3384 45.2632 29.0924 47.0129 30.3405V14.8694L20.5951 21.6819V42.6653C20.5951 47.8137 15.9482 52 10.2975 52C4.61808 52 0 47.8137 0 42.6653C0 37.543 4.61808 33.3567 10.2975 33.3567C12.6783 33.3567 14.8296 34.1108 16.5793 35.3328V12.3472C16.5793 8.52497 19.1321 5.56076 23.1766 4.57269L39.7559 0.464405C43.1119 -0.367653 45.9516 -0.0816338 47.9595 1.32246C49.9961 2.70056 51 5.04072 51 8.26495Z" fill="#292D32"/>
</svg>
