<svg width="47" height="63" viewBox="0 0 47 63" fill="none" xmlns="http://www.w3.org/2000/svg">
<path d="M44.8636 23.625H42.7273C41.5469 23.625 40.5909 24.506 40.5909 25.5938V31.5C40.5909 40.7039 31.98 48.0892 21.7922 47.1737C12.913 46.3751 6.40909 39.0194 6.40909 30.7986V25.5938C6.40909 24.506 5.45307 23.625 4.27273 23.625H2.13636C0.956023 23.625 0 24.506 0 25.5938V30.5353C0 41.5652 8.54145 51.3979 20.2955 52.8917V57.0938H12.8182C11.6378 57.0938 10.6818 57.9748 10.6818 59.0625V61.0312C10.6818 62.119 11.6378 63 12.8182 63H34.1818C35.3622 63 36.3182 62.119 36.3182 61.0312V59.0625C36.3182 57.9748 35.3622 57.0938 34.1818 57.0938H26.7045V52.9385C38.1488 51.4914 47 42.4389 47 31.5V25.5938C47 24.506 46.044 23.625 44.8636 23.625ZM23.5 43.3125C30.5794 43.3125 36.3182 38.0239 36.3182 31.5H24.9247C24.1382 31.5 23.5 31.0595 23.5 30.5156V28.5469C23.5 28.003 24.1382 27.5625 24.9247 27.5625H36.3182V23.625H24.9247C24.1382 23.625 23.5 23.1845 23.5 22.6406V20.6719C23.5 20.128 24.1382 19.6875 24.9247 19.6875H36.3182V15.75H24.9247C24.1382 15.75 23.5 15.3095 23.5 14.7656V12.7969C23.5 12.253 24.1382 11.8125 24.9247 11.8125H36.3182C36.3182 5.28855 30.5794 0 23.5 0C16.4206 0 10.6818 5.28855 10.6818 11.8125V31.5C10.6818 38.0239 16.4206 43.3125 23.5 43.3125Z" fill="black"/>
</svg>
