<svg width="61" height="44" viewBox="0 0 61 44" fill="none" xmlns="http://www.w3.org/2000/svg">
<path d="M60.6499 26.1357L52.98 40.3617C52.3831 41.4689 51.5285 42.3874 50.5013 43.0257C49.4741 43.6641 48.3102 44 47.1256 44H4.76827C2.80664 44 1.58441 41.6977 2.5728 39.8643L10.2427 25.6383C10.8396 24.5311 11.6943 23.6126 12.7215 22.9743C13.7487 22.3359 14.9126 22 16.0972 22H58.4545C60.4162 22 61.6384 24.3023 60.6499 26.1357ZM16.0972 18.3333H50.8333V12.8333C50.8333 9.79573 48.5575 7.33333 45.75 7.33333H28.8056L22.0278 0H5.08334C2.27585 0 0 2.4624 0 5.5V37.3594L7.31545 23.7907C9.13031 20.4245 12.4954 18.3333 16.0972 18.3333Z" fill="black"/>
</svg>
