<svg width="75" height="70" viewBox="0 0 75 70" fill="none" xmlns="http://www.w3.org/2000/svg">
<path d="M41.9301 34.2978C40.4302 34.2978 39.0804 33.5287 38.4429 32.27L33.0059 22.1657L31.4311 24.8928C30.5687 26.3962 28.8438 27.3402 27.0065 27.3402H24.2693C22.7319 27.3402 21.457 26.1514 21.457 24.718C21.457 23.2845 22.7319 22.0958 24.2693 22.0958H26.669L29.6313 16.9912C30.3437 15.8025 31.7686 14.9983 33.1184 15.0682C34.5808 15.0682 35.8932 15.8724 36.5681 17.0611L41.9301 27.0605L43.205 24.648C44.0674 23.0398 45.7547 22.0608 47.7045 22.0608H50.7418C52.2791 22.0608 53.554 23.2495 53.554 24.683C53.554 26.1165 52.2791 27.3052 50.7418 27.3052H48.0795L45.4173 32.235C44.7423 33.5287 43.43 34.2978 41.9301 34.2978Z" fill="#292D32"/>
<path d="M2.81888 58.0383C1.28152 58.0383 0.006642 56.8495 0.006642 55.4161V35.4873C-0.18084 26.0123 3.6063 17.0618 10.6556 10.349C17.705 3.67109 27.1541 0 37.3155 0C58.0886 0 74.9995 15.7682 74.9995 35.1377V55.0664C74.9995 56.4999 73.7246 57.6886 72.1872 57.6886C70.6499 57.6886 69.375 56.4999 69.375 55.0664V35.1377C69.375 18.6701 55.0139 5.24442 37.3155 5.24442C28.6539 5.24442 20.6297 8.3561 14.6678 14.0201C8.66832 19.719 5.48112 27.3059 5.63111 35.4174V55.3811C5.63111 56.8495 4.39373 58.0383 2.81888 58.0383Z" fill="#292D32"/>
<path d="M14.7814 36.3558H14.294C6.41971 36.3558 0.0078125 42.3345 0.0078125 49.6766V56.2496C0.0078125 63.5918 6.41971 69.5705 14.294 69.5705H14.7814C22.6557 69.5705 29.0676 63.5918 29.0676 56.2496V49.6766C29.0676 42.3345 22.6557 36.3558 14.7814 36.3558Z" fill="#292D32"/>
<path d="M60.715 36.3558H60.2276C52.3533 36.3558 45.9414 42.3345 45.9414 49.6766V56.2496C45.9414 63.5918 52.3533 69.5705 60.2276 69.5705H60.715C68.5893 69.5705 75.0012 63.5918 75.0012 56.2496V49.6766C75.0012 42.3345 68.5893 36.3558 60.715 36.3558Z" fill="#292D32"/>
</svg>
