<svg width="105" height="40" viewBox="0 0 105 40" fill="none" xmlns="http://www.w3.org/2000/svg">
<path d="M0.708008 0.854492H6.91895V39H0.708008V0.854492ZM26.5869 39H20.0137L12.8193 25.1807C12.7158 25.1807 12.5951 25.1979 12.457 25.2324C12.3535 25.2324 12.181 25.2324 11.9395 25.2324C11.6979 25.2324 11.3356 25.2324 10.8525 25.2324C10.404 25.2324 9.80013 25.2324 9.04102 25.2324V20.6777H12.5605C13.3197 20.6777 14.0788 20.557 14.8379 20.3154C15.597 20.0394 16.2871 19.6081 16.9082 19.0215C17.5293 18.4349 18.0296 17.624 18.4092 16.5889C18.7887 15.5192 18.9785 14.208 18.9785 12.6553C18.9785 12.0342 18.8923 11.3268 18.7197 10.5332C18.5472 9.70508 18.1849 8.92871 17.6328 8.2041C17.1152 7.44499 16.3734 6.82389 15.4072 6.34082C14.4411 5.82324 13.1644 5.56445 11.5771 5.56445H9.04102V0.854492H11.6807C13.3024 0.854492 14.9069 1.11328 16.4941 1.63086C18.0814 2.14844 19.4961 2.9248 20.7383 3.95996C22.015 4.99512 23.0329 6.25456 23.792 7.73828C24.5856 9.1875 24.9824 10.8265 24.9824 12.6553C24.9824 15.4157 24.3441 17.762 23.0674 19.6943C21.7907 21.6266 20.0654 23.0586 17.8916 23.9902L26.5869 39ZM33.3154 0.854492H40.4062L48.4287 30.7705V39.207H45.168L33.3154 0.854492ZM58.625 0.854492H65.6641L53.2422 39.207H50.5508V29.1143L58.625 0.854492ZM104.689 39H98.2715L88.3857 10.4297L78.3965 39H71.9268L85.2803 0.90625H91.4395L104.689 39ZM91.8018 26.8887L93.3027 31.0811H83.417L84.8662 26.8887H91.8018Z" fill="black"/>
</svg>
